<?xml version="1.0" encoding="UTF-8"?>
<svg width="512px" height="512px" viewBox="0 0 512 512" version="1.1" xmlns="http://www.w3.org/2000/svg" xmlns:xlink="http://www.w3.org/1999/xlink">
    <!-- Generator: Sketch 51.3 (57544) - http://www.bohemiancoding.com/sketch -->
    <title>Shape</title>
    <desc>Created with Sketch.</desc>
    <defs></defs>
    <g id="Page-1" stroke="none" stroke-width="1" fill="none" fill-rule="evenodd">
        <g id="022-skype" fill="#FFFFFF" fill-rule="nonzero">
            <path d="M497.28,310.336 C500.992,293.664 502.912,276.384 502.912,258.656 C502.912,125.696 393.6,17.888 258.72,17.888 C244.512,17.888 230.56,19.104 216.96,21.408 C195.136,7.872 169.312,0 141.632,0 C63.392,0 0,62.496 0,139.648 C0,165.408 7.104,189.504 19.456,210.272 C16.224,225.888 14.496,242.08 14.496,258.656 C14.496,391.648 123.84,499.456 258.688,499.456 C273.984,499.456 288.928,498.048 303.424,495.424 C323.392,505.984 346.176,512 370.4,512 C448.608,512 512,449.472 512,372.384 C512,350.08 506.688,329.056 497.28,310.336 Z M383.968,373.728 C372.672,389.504 356,401.984 334.336,410.816 C312.928,419.616 287.296,424.096 258.048,424.096 C222.976,424.096 193.568,418.016 170.592,405.984 C154.176,397.248 140.672,385.44 130.4,370.784 C120,356.064 114.784,341.44 114.784,327.296 C114.784,318.496 118.208,310.848 124.96,304.608 C131.648,298.368 140.224,295.264 150.464,295.264 C158.848,295.264 166.08,297.728 171.968,302.624 C177.568,307.328 182.4,314.304 186.272,323.232 C190.592,333.024 195.296,341.28 200.256,347.712 C205.088,354.016 211.968,359.264 220.768,363.392 C229.632,367.488 241.568,369.632 256.224,369.632 C276.416,369.632 292.992,365.376 305.408,356.992 C317.6,348.832 323.488,338.976 323.488,326.944 C323.488,317.472 320.384,309.984 314.08,304.128 C307.424,297.984 298.656,293.216 288.032,289.92 C276.928,286.528 261.856,282.816 243.232,278.976 C217.856,273.632 196.32,267.296 179.232,260.096 C161.728,252.736 147.584,242.56 137.28,229.824 C126.784,216.864 121.472,200.64 121.472,181.568 C121.472,163.392 127.04,147.008 138.048,132.864 C148.96,118.816 164.896,107.84 185.472,100.384 C205.728,92.992 229.824,89.248 257.12,89.248 C278.912,89.248 298.08,91.744 314.112,96.672 C330.208,101.6 343.776,108.256 354.432,116.48 C365.184,124.8 373.184,133.6 378.176,142.816 C383.232,152.096 385.824,161.344 385.824,170.272 C385.824,178.88 382.464,186.72 375.808,193.504 C369.088,200.384 360.64,203.84 350.72,203.84 C341.696,203.84 334.592,201.632 329.696,197.376 C325.12,193.376 320.352,187.136 315.104,178.24 C309.024,166.848 301.632,157.856 293.184,151.488 C284.96,145.312 271.264,142.24 252.384,142.24 C234.912,142.24 220.64,145.696 210.08,152.544 C199.904,159.104 194.944,166.656 194.944,175.616 C194.944,181.088 196.544,185.664 199.84,189.6 C203.296,193.824 208.192,197.44 214.4,200.512 C220.8,203.68 227.424,206.24 234.048,208.032 C240.832,209.888 252.192,212.672 267.84,216.224 C287.616,220.384 305.76,225.088 321.824,230.176 C338.112,235.264 352.128,241.568 363.648,248.96 C375.328,256.48 384.576,266.08 391.168,277.6 C397.76,289.216 401.088,303.456 401.088,320.032 C401.056,339.84 395.296,357.92 383.968,373.728 Z" id="Shape"></path>
        </g>
    </g>
</svg>