<?xml version="1.0" encoding="UTF-8"?>
<svg width="512px" height="502px" viewBox="0 0 512 502" version="1.1" xmlns="http://www.w3.org/2000/svg" xmlns:xlink="http://www.w3.org/1999/xlink">
    <!-- Generator: Sketch 51.3 (57544) - http://www.bohemiancoding.com/sketch -->
    <title>039-github</title>
    <desc>Created with Sketch.</desc>
    <defs></defs>
    <g id="Page-1" stroke="none" stroke-width="1" fill="none" fill-rule="evenodd">
        <g id="039-github" fill="#FFFFFF" fill-rule="nonzero">
            <path d="M255.968,0.329 C114.624,0.329 0,115.401 0,257.353 C0,370.889 73.344,467.209 175.104,501.225 C187.904,503.593 192.576,495.657 192.576,488.841 C192.576,482.729 192.352,466.569 192.224,445.129 C121.024,460.649 105.984,410.665 105.984,410.665 C94.368,380.969 77.568,373.065 77.568,373.065 C54.304,357.129 79.296,357.449 79.296,357.449 C104.992,359.273 118.496,383.945 118.496,383.945 C141.344,423.209 178.432,411.881 193.024,405.289 C195.328,388.681 201.952,377.353 209.28,370.921 C152.448,364.425 92.672,342.377 92.672,243.913 C92.672,215.849 102.656,192.905 119.04,174.921 C116.384,168.425 107.616,142.281 121.536,106.921 C121.536,106.921 143.04,100.009 191.936,133.257 C212.352,127.561 234.24,124.713 256.032,124.617 C277.76,124.745 299.68,127.561 320.128,133.289 C368.992,100.041 390.464,106.953 390.464,106.953 C404.416,142.345 395.648,168.457 393.024,174.953 C409.44,192.937 419.328,215.881 419.328,243.945 C419.328,342.665 359.488,364.393 302.464,370.761 C311.648,378.697 319.84,394.377 319.84,418.345 C319.84,452.713 319.52,480.425 319.52,488.841 C319.52,495.721 324.128,503.721 337.12,501.193 C438.72,467.145 512,370.857 512,257.353 C512,115.401 397.376,0.329 255.968,0.329 Z" id="Shape"></path>
        </g>
    </g>
</svg>